<svg width="126" height="126" viewBox="0 0 126 126" fill="none" xmlns="http://www.w3.org/2000/svg"><path d="m113.268 48.633 4.106-6.697c2.192-3.58-.076-8.221-4.255-8.694l-7.823-.893 1.57-7.694c.835-4.107-2.896-7.688-6.974-6.713l-7.647 1.818-1.175-7.757c-.629-4.14-5.347-6.249-8.862-3.931l-6.556 4.321L71.888 5.5c-2.008-3.69-7.168-4.047-9.68-.676l-4.686 6.302-5.893-5.191C48.474 3.16 43.496 4.583 42.307 8.6l-2.239 7.516-7.322-2.868c-3.909-1.534-8.105 1.511-7.85 5.69l.484 7.83-7.87-.196c-4.199-.111-7.093 4.174-5.426 8.017l3.126 7.199-7.451 2.5c-3.99 1.332-5.238 6.336-2.348 9.378l5.421 5.695-6.16 4.892c-3.293 2.61-2.75 7.744 1.012 9.62l7.04 3.51-4.11 6.684c-2.191 3.58.076 8.222 4.255 8.694l7.824.893-1.571 7.694c-.834 4.107 2.883 7.692 6.974 6.713l7.647-1.817L34.918 114c.629 4.14 5.36 6.245 8.862 3.932l6.57-4.326 3.764 6.894c2.007 3.691 7.167 4.046 9.68.676l4.685-6.302 5.893 5.191c3.155 2.774 8.133 1.351 9.322-2.666l2.239-7.515 7.322 2.868c3.909 1.534 8.093-1.508 7.85-5.69l-.471-7.835 7.857.2c4.212.108 7.105-4.177 5.426-8.017l-3.126-7.198 7.451-2.5c3.99-1.332 5.238-6.336 2.348-9.378l-5.421-5.695 6.16-4.892c3.293-2.61 2.749-7.744-1.012-9.621z" stroke="#51a356" stroke-width="5" stroke-linejoin="round"></path><path d="M60.138 66.742q1.935 6.732-1.55 11.323-3.5 4.547-10.916 6.669-5.33 1.523-9.588.92-4.227-.66-6.888-2.728-2.618-2.08-3.381-4.736a.94.94 0 0 1 .075-.74q.222-.4.622-.514l10.037-2.87a.94.94 0 0 1 .742.075q.388.177.648.582 1.608 2.415 5.028 1.438 2.087-.597 3.006-1.914.964-1.33.441-3.146l-2.865-9.965-16.21 4.636q-.489.14-.946-.114a1.2 1.2 0 0 1-.597-.74l-1.923-6.687a1.2 1.2 0 0 1 .113-.943q.255-.456.742-.595l27.002-7.721q.489-.14.946.112.457.254.597.74zm32.611-28.928q.489-.14.946.113.458.252.597.74l2.05 7.13q.142.488-.113.943a1.2 1.2 0 0 1-.741.596l-9.55 2.73 5.833 20.283q.141.488-.112.944-.254.456-.742.595l-9.15 2.617q-.487.139-.945-.114a1.2 1.2 0 0 1-.597-.74l-5.833-20.283-9.548 2.73q-.487.14-.945-.113a1.2 1.2 0 0 1-.598-.74l-2.05-7.13a1.2 1.2 0 0 1 .113-.943q.255-.456.742-.596z" stroke="#51a356" stroke-width="5" stroke-linejoin="round"></path></svg>